<svg xmlns="http://www.w3.org/2000/svg" viewBox="0 0 2000 2000" width="2000" height="2000">
  <defs>
    <linearGradient id="bg7" x1="0" y1="0" x2="1" y2="1">
      <stop offset="0%" stop-color="#E8E8E8"/>
      <stop offset="100%" stop-color="#D0D0D0"/>
    </linearGradient>
  </defs>
  <rect width="2000" height="2000" fill="url(#bg7)"/>
  <!-- White t-shirt neck/collarbone -->
  <path d="M700 1400 L1000 1200 L1300 1400 Q1400 1550 1300 2000 L700 2000 Q600 1550 700 1400 Z" fill="#F5F5F5"/>
  <ellipse cx="1000" cy="1400" rx="200" ry="40" fill="#E8E8E8" opacity="0.5"/>
  <!-- Texture hair - piecey, pushed back -->
  <path d="M800 900 Q750 750 800 600 Q850 500 1000 480 Q1150 500 1200 600 Q1250 750 1200 900" fill="#3A2A1A" opacity="0.85"/>
  <!-- Individual textured pieces -->
  <path d="M800 600 Q760 550 740 480" fill="none" stroke="#4A3A2A" stroke-width="12" stroke-linecap="round"/>
  <path d="M850 550 Q820 480 830 420" fill="none" stroke="#4A3A2A" stroke-width="8" stroke-linecap="round"/>
  <path d="M920 510 Q900 430 910 380" fill="none" stroke="#5A4A3A" stroke-width="6" stroke-linecap="round"/>
  <path d="M1000 480 Q1000 400 990 360" fill="none" stroke="#4A3A2A" stroke-width="10" stroke-linecap="round"/>
  <path d="M1080 510 Q1100 430 1090 380" fill="none" stroke="#5A4A3A" stroke-width="6" stroke-linecap="round"/>
  <path d="M1150 550 Q1180 480 1170 420" fill="none" stroke="#4A3A2A" stroke-width="8" stroke-linecap="round"/>
  <path d="M1200 600 Q1240 550 1260 480" fill="none" stroke="#4A3A2A" stroke-width="12" stroke-linecap="round"/>
  <!-- Texture highlights -->
  <path d="M800 550 Q840 500 880 480" fill="none" stroke="white" stroke-width="2" opacity="0.1"/>
  <path d="M950 460 Q1000 420 1050 460" fill="none" stroke="white" stroke-width="2" opacity="0.08"/>
  <!-- Text -->
  <text x="1000" y="1850" font-family="Georgia, serif" font-size="28" fill="#7A7A7A" text-anchor="middle" letter-spacing="6">PATHWAY 07 — THE CONTROLLED TEXTURE</text>
</svg>