<svg xmlns="http://www.w3.org/2000/svg" viewBox="0 0 2000 2000" width="2000" height="2000">
  <defs>
    <linearGradient id="bg6" x1="0" y1="0" x2="0" y2="1">
      <stop offset="0%" stop-color="#D0D0D0"/>
      <stop offset="100%" stop-color="#B8B8B8"/>
    </linearGradient>
    <linearGradient id="hair6" x1="0" y1="0" x2="0" y2="1">
      <stop offset="0%" stop-color="#6B5B4B"/>
      <stop offset="50%" stop-color="#7A6A5A"/>
      <stop offset="100%" stop-color="#5A4A3A"/>
    </linearGradient>
  </defs>
  <rect width="2000" height="2000" fill="url(#bg6)"/>
  <!-- Neck -->
  <rect x="850" y="1000" width="300" height="500" rx="80" fill="#E8D5C0"/>
  <!-- Shoulders -->
  <path d="M500 1500 Q750 1300 1000 1300 Q1250 1300 1500 1500 L1500 2000 L500 2000 Z" fill="#1A1A1A" opacity="0.9"/>
  <!-- Face -->
  <ellipse cx="1000" cy="750" rx="180" ry="240" fill="#EDDCC8"/>
  <!-- Hair volume - blowout crown -->
  <ellipse cx="1000" cy="500" rx="220" ry="180" fill="url(#hair6)"/>
  <path d="M780 500 Q850 350 1000 330 Q1150 350 1220 500" fill="url(#hair6)"/>
  <!-- Mid-lengths -->
  <path d="M780 500 Q750 700 760 900" fill="url(#hair6)" opacity="0.8"/>
  <path d="M1220 500 Q1250 700 1240 900" fill="url(#hair6)" opacity="0.8"/>
  <!-- Soft bends at ends -->
  <path d="M760 900 Q740 950 755 1000" fill="none" stroke="#7A6A5A" stroke-width="8" stroke-linecap="round"/>
  <path d="M1240 900 Q1260 950 1245 1000" fill="none" stroke="#7A6A5A" stroke-width="8" stroke-linecap="round"/>
  <!-- Highlights -->
  <ellipse cx="960" cy="480" rx="60" ry="40" fill="white" opacity="0.08"/>
  <ellipse cx="1040" cy="520" rx="45" ry="30" fill="white" opacity="0.06"/>
  <!-- Face features -->
  <ellipse cx="1000" cy="720" rx="40" ry="6" fill="#D0B8A0" opacity="0.2"/>
  <ellipse cx="1000" cy="780" rx="12" ry="5" fill="#C8A888" opacity="0.3"/>
  <!-- Text -->
  <text x="1000" y="1850" font-family="Georgia, serif" font-size="28" fill="#7A7A7A" text-anchor="middle" letter-spacing="6">PATHWAY 06 — THE CLEAN BLOWOUT</text>
</svg>